<svg xmlns="http://www.w3.org/2000/svg" xmlns:xlink="http://www.w3.org/1999/xlink" width="700" zoomAndPan="magnify" viewBox="0 0 525 187.499995" height="250" preserveAspectRatio="xMidYMid meet" version="1.0"><defs><g/><clipPath id="9d8487fd7e"><path d="M 0.699219 93.925781 L 524.300781 93.925781 L 524.300781 114.578125 L 0.699219 114.578125 Z M 0.699219 93.925781 " clip-rule="nonzero"/></clipPath><clipPath id="74e95e0072"><path d="M 11.023438 93.925781 L 513.976562 93.925781 C 519.679688 93.925781 524.300781 98.550781 524.300781 104.25 C 524.300781 109.953125 519.679688 114.578125 513.976562 114.578125 L 11.023438 114.578125 C 5.320312 114.578125 0.699219 109.953125 0.699219 104.25 C 0.699219 98.550781 5.320312 93.925781 11.023438 93.925781 Z M 11.023438 93.925781 " clip-rule="nonzero"/></clipPath><clipPath id="f9ae3e27d8"><path d="M 0.714844 93.925781 L 524.238281 93.925781 L 524.238281 114.78125 L 0.714844 114.78125 Z M 0.714844 93.925781 " clip-rule="nonzero"/></clipPath><clipPath id="cc8739b8ac"><path d="M 11.039062 93.925781 L 513.949219 93.925781 C 519.648438 93.925781 524.273438 98.546875 524.273438 104.25 C 524.273438 109.953125 519.648438 114.574219 513.949219 114.574219 L 11.039062 114.574219 C 5.339844 114.574219 0.714844 109.953125 0.714844 104.25 C 0.714844 98.546875 5.339844 93.925781 11.039062 93.925781 Z M 11.039062 93.925781 " clip-rule="nonzero"/></clipPath><clipPath id="055b1c7e75"><path d="M 83.167969 74.710938 L 108.085938 74.710938 L 108.085938 124.019531 L 83.167969 124.019531 Z M 83.167969 74.710938 " clip-rule="nonzero"/></clipPath><clipPath id="a8d4fcf6a6"><path d="M 95.628906 74.710938 C 88.746094 74.710938 83.167969 85.75 83.167969 99.367188 C 83.167969 112.980469 88.746094 124.019531 95.628906 124.019531 C 102.507812 124.019531 108.085938 112.980469 108.085938 99.367188 C 108.085938 85.75 102.507812 74.710938 95.628906 74.710938 Z M 95.628906 74.710938 " clip-rule="nonzero"/></clipPath><clipPath id="60f31da409"><path d="M 98 78 L 130 78 L 130 131 L 98 131 Z M 98 78 " clip-rule="nonzero"/></clipPath><clipPath id="aae3185bd0"><path d="M 111.402344 137.953125 L 89.453125 86.324219 L 108.039062 78.425781 L 129.988281 130.050781 Z M 111.402344 137.953125 " clip-rule="nonzero"/></clipPath><clipPath id="23678f87ff"><path d="M 111.402344 137.953125 L 89.453125 86.324219 L 108.039062 78.425781 L 129.988281 130.050781 Z M 111.402344 137.953125 " clip-rule="nonzero"/></clipPath></defs><g fill="#f8f9fa" fill-opacity="1"><g transform="translate(427.540961, 148.816751)"><g><path d="M 94.304688 -104.179688 L 51.550781 -104.179688 L 51.550781 -103.253906 C 68.683594 -89.980469 69.453125 -60.039062 63.125 -49.234375 L 60.65625 -44.914062 L 37.195312 -95.230469 L 44.757812 -103.253906 L 44.757812 -104.179688 L 0.925781 -104.179688 L 0.925781 -103.253906 L 32.101562 -39.511719 L 32.101562 -9.570312 L 24.230469 -0.925781 L 24.230469 0 L 70.226562 0 L 70.226562 -0.925781 L 62.355469 -9.570312 L 62.355469 -40.902344 L 94.304688 -103.253906 Z M 94.304688 -104.179688 "/></g></g></g><g fill="#f8f9fa" fill-opacity="1"><g transform="translate(78.796194, 147.320742)"><g><path d="M 52.320312 2.316406 C 58.957031 2.316406 100.167969 -6.945312 100.167969 -52.167969 C 100.167969 -82.265625 79.484375 -106.339844 52.011719 -106.339844 C 45.222656 -106.339844 4.011719 -97.082031 4.011719 -51.859375 C 4.011719 -21.761719 24.386719 2.316406 52.320312 2.316406 Z M 70.378906 -6.792969 C 60.191406 -3.703125 45.992188 -20.375 35.035156 -49.234375 C 24.078125 -78.097656 25.621094 -94.613281 33.648438 -97.234375 C 43.214844 -100.011719 56.027344 -86.277344 66.828125 -59.265625 C 78.867188 -29.324219 78.714844 -9.570312 70.378906 -6.792969 Z M 70.378906 -6.792969 "/></g></g></g><g fill="#f8f9fa" fill-opacity="1"><g transform="translate(175.186668, 148.816751)"><g><path d="M 60.191406 -54.175781 C 82.882812 -57.414062 95.074219 -67.292969 95.074219 -81.492188 C 95.074219 -95.074219 83.652344 -104.179688 52.9375 -104.179688 L 4.9375 -104.179688 L 4.9375 -103.253906 L 13.273438 -95.230469 L 13.273438 -8.953125 L 4.9375 -0.925781 L 4.9375 0 L 50.007812 0 C 84.117188 0 100.476562 -16.207031 100.476562 -31.023438 C 100.476562 -44.449219 90.90625 -56.179688 60.039062 -53.09375 Z M 48 -101.558594 C 63.433594 -101.558594 64.824219 -90.136719 64.824219 -78.097656 C 64.824219 -62.972656 61.582031 -55.101562 47.691406 -54.945312 L 43.0625 -54.945312 L 43.0625 -101.558594 Z M 48 -2.625 C 44.605469 -2.46875 44.296875 -2.625 43.0625 -2.777344 L 43.0625 -52.167969 L 48.15625 -52.167969 C 60.964844 -52.167969 68.21875 -46.300781 68.21875 -27.9375 C 68.21875 -10.496094 61.582031 -3.085938 48 -2.625 Z M 48 -2.625 "/></g></g></g><g fill="#f8f9fa" fill-opacity="1"><g transform="translate(277.460953, 148.816751)"><g><path d="M 12.808594 -9.570312 L 4.9375 -0.925781 L 4.9375 0 L 50.933594 0 L 50.933594 -0.925781 L 43.0625 -9.570312 L 43.0625 -94.613281 L 50.933594 -103.253906 L 50.933594 -104.179688 L 4.9375 -104.179688 L 4.9375 -103.253906 L 12.808594 -94.613281 Z M 12.808594 -9.570312 "/></g></g></g><g fill="#f8f9fa" fill-opacity="1"><g transform="translate(335.434287, 148.816751)"><g><path d="M 89.671875 -104.179688 L 5.09375 -104.179688 L 5.09375 -103.253906 L 13.429688 -95.230469 L 13.273438 -9.570312 L 5.246094 -0.925781 L 5.246094 0 L 51.394531 0 L 51.394531 -0.925781 L 43.371094 -9.570312 L 43.371094 -49.390625 L 46.300781 -49.390625 C 54.792969 -49.390625 61.273438 -45.066406 71.460938 -26.082031 L 72.386719 -26.082031 L 72.386719 -75.320312 L 71.460938 -75.320312 C 61.273438 -54.945312 54.792969 -52.167969 46.300781 -52.167969 L 43.371094 -52.167969 L 43.371094 -101.402344 L 44.605469 -101.402344 C 62.664062 -101.402344 66.210938 -96.15625 80.101562 -73.777344 C 82.574219 -69.917969 85.503906 -65.441406 88.902344 -60.347656 L 89.671875 -60.347656 Z M 89.671875 -104.179688 "/></g></g></g><g clip-path="url(#9d8487fd7e)"><g clip-path="url(#74e95e0072)"><path fill="#231f20" d="M 0.699219 93.925781 L 524.300781 93.925781 L 524.300781 114.578125 L 0.699219 114.578125 Z M 0.699219 93.925781 " fill-opacity="1" fill-rule="nonzero"/></g></g><g clip-path="url(#f9ae3e27d8)"><g clip-path="url(#cc8739b8ac)"><path stroke-linecap="butt" transform="matrix(1.097569, 0, 0, 1.097569, 0.716756, 93.926224)" fill="none" stroke-linejoin="miter" d="M 9.404696 -0.000403649 L 467.608197 -0.000403649 C 472.800779 -0.000403649 477.014635 4.209894 477.014635 9.406034 C 477.014635 14.602175 472.800779 18.812472 467.608197 18.812472 L 9.404696 18.812472 C 4.212115 18.812472 -0.0017419 14.602175 -0.0017419 9.406034 C -0.0017419 4.209894 4.212115 -0.000403649 9.404696 -0.000403649 Z M 9.404696 -0.000403649 " stroke="#f8f9fa" stroke-width="1.363021" stroke-opacity="1" stroke-miterlimit="4"/></g></g><g fill="#f8f9fa" fill-opacity="1"><g transform="translate(161.630477, 105.747214)"><g><path d="M 4.128906 0.21875 C 6.125 0.21875 7.464844 -0.613281 7.464844 -1.84375 C 7.464844 -2.875 6.640625 -3.425781 4.734375 -3.6875 L 3.234375 -3.894531 C 2.230469 -4.03125 1.808594 -4.28125 1.808594 -4.714844 C 1.808594 -5.304688 2.601562 -5.710938 3.714844 -5.710938 C 4.824219 -5.710938 5.847656 -5.257812 6.34375 -4.617188 L 6.929688 -5.347656 C 6.359375 -6.097656 5.125 -6.625 3.703125 -6.625 C 1.871094 -6.625 0.570312 -5.875 0.570312 -4.636719 C 0.570312 -3.640625 1.28125 -3.136719 2.953125 -2.917969 L 4.472656 -2.683594 C 5.703125 -2.511719 6.226562 -2.214844 6.226562 -1.734375 C 6.226562 -1.148438 5.414062 -0.714844 4.191406 -0.714844 C 2.703125 -0.714844 1.328125 -1.347656 0.859375 -2.257812 L 0.179688 -1.535156 C 0.785156 -0.507812 2.347656 0.21875 4.128906 0.21875 Z M 4.128906 0.21875 "/></g></g></g><g fill="#f8f9fa" fill-opacity="1"><g transform="translate(176.50659, 105.747214)"><g><path d="M 0.453125 0 L 1.707031 0 L 1.707031 -2.875 L 6.488281 -2.875 L 6.488281 0 L 7.734375 0 L 7.734375 -6.40625 L 6.488281 -6.40625 L 6.488281 -3.820312 L 1.707031 -3.820312 L 1.707031 -6.40625 L 0.453125 -6.40625 Z M 0.453125 0 "/></g></g></g><g fill="#f8f9fa" fill-opacity="1"><g transform="translate(191.924761, 105.747214)"><g><path d="M 0.453125 0 L 1.699219 0 L 1.699219 -6.40625 L 0.453125 -6.40625 Z M 0.453125 0 "/></g></g></g><g fill="#f8f9fa" fill-opacity="1"><g transform="translate(201.30793, 105.747214)"><g><path d="M 0.453125 0 L 1.707031 0 L 1.707031 -2.683594 L 6.054688 -2.683594 L 6.054688 -3.558594 L 1.707031 -3.558594 L 1.707031 -5.421875 L 6.585938 -5.421875 L 6.585938 -6.40625 L 0.453125 -6.40625 Z M 0.453125 0 "/></g></g></g><g fill="#f8f9fa" fill-opacity="1"><g transform="translate(215.271554, 105.747214)"><g><path d="M 2.925781 0 L 4.183594 0 L 4.183594 -5.421875 L 7.058594 -5.421875 L 7.058594 -6.40625 L 0.0546875 -6.40625 L 0.0546875 -5.421875 L 2.925781 -5.421875 Z M 2.925781 0 "/></g></g></g><g fill="#f8f9fa" fill-opacity="1"><g transform="translate(229.614626, 105.747214)"><g/></g></g><g fill="#f8f9fa" fill-opacity="1"><g transform="translate(239.45855, 105.747214)"><g><path d="M 0.289062 0 L 6.769531 0 L 6.769531 -0.914062 L 1.570312 -0.914062 C 1.570312 -1.808594 1.996094 -2.214844 3.226562 -2.457031 L 4.4375 -2.691406 C 5.9375 -2.964844 6.542969 -3.488281 6.542969 -4.527344 C 6.542969 -5.820312 5.449219 -6.605469 3.832031 -6.605469 C 2.519531 -6.605469 1.21875 -6.046875 0.507812 -5.160156 L 1.09375 -4.375 C 1.707031 -5.140625 2.738281 -5.648438 3.695312 -5.648438 C 4.664062 -5.648438 5.304688 -5.195312 5.304688 -4.546875 C 5.304688 -3.984375 4.953125 -3.703125 4.046875 -3.53125 L 2.882812 -3.316406 C 0.992188 -2.953125 0.296875 -2.269531 0.289062 -0.695312 Z M 0.289062 0 "/></g></g></g><g fill="#f8f9fa" fill-opacity="1"><g transform="translate(253.73839, 105.747214)"><g/></g></g><g fill="#f8f9fa" fill-opacity="1"><g transform="translate(263.582319, 105.747214)"><g><path d="M 4.128906 0.21875 C 6.125 0.21875 7.464844 -0.613281 7.464844 -1.84375 C 7.464844 -2.875 6.640625 -3.425781 4.734375 -3.6875 L 3.234375 -3.894531 C 2.230469 -4.03125 1.808594 -4.28125 1.808594 -4.714844 C 1.808594 -5.304688 2.601562 -5.710938 3.714844 -5.710938 C 4.824219 -5.710938 5.847656 -5.257812 6.34375 -4.617188 L 6.929688 -5.347656 C 6.359375 -6.097656 5.125 -6.625 3.703125 -6.625 C 1.871094 -6.625 0.570312 -5.875 0.570312 -4.636719 C 0.570312 -3.640625 1.28125 -3.136719 2.953125 -2.917969 L 4.472656 -2.683594 C 5.703125 -2.511719 6.226562 -2.214844 6.226562 -1.734375 C 6.226562 -1.148438 5.414062 -0.714844 4.191406 -0.714844 C 2.703125 -0.714844 1.328125 -1.347656 0.859375 -2.257812 L 0.179688 -1.535156 C 0.785156 -0.507812 2.347656 0.21875 4.128906 0.21875 Z M 4.128906 0.21875 "/></g></g></g><g fill="#f8f9fa" fill-opacity="1"><g transform="translate(278.458431, 105.747214)"><g><path d="M 4.058594 0.207031 C 6.308594 0.207031 7.761719 -0.914062 7.761719 -2.917969 L 7.761719 -6.40625 L 6.503906 -6.40625 L 6.503906 -2.953125 C 6.503906 -1.519531 5.539062 -0.796875 4.066406 -0.796875 C 2.601562 -0.796875 1.625 -1.519531 1.625 -2.953125 L 1.625 -6.40625 L 0.363281 -6.40625 L 0.363281 -2.917969 C 0.363281 -0.914062 1.816406 0.207031 4.058594 0.207031 Z M 4.058594 0.207031 "/></g></g></g><g fill="#f8f9fa" fill-opacity="1"><g transform="translate(293.813369, 105.747214)"><g><path d="M 4.761719 0.207031 C 6.839844 0.207031 8.441406 -0.75 8.875 -2.257812 L 7.707031 -2.53125 C 7.382812 -1.453125 6.253906 -0.769531 4.78125 -0.769531 C 2.835938 -0.769531 1.597656 -1.71875 1.597656 -3.199219 C 1.597656 -4.679688 2.730469 -5.628906 4.5 -5.628906 C 5.78125 -5.628906 6.785156 -5.023438 7.09375 -4.066406 L 8.230469 -4.402344 C 7.761719 -5.746094 6.296875 -6.605469 4.472656 -6.605469 C 1.941406 -6.605469 0.34375 -5.277344 0.34375 -3.199219 C 0.34375 -1.101562 2.058594 0.207031 4.761719 0.207031 Z M 4.761719 0.207031 "/></g></g></g><g fill="#f8f9fa" fill-opacity="1"><g transform="translate(310.162094, 105.747214)"><g><path d="M 4.761719 0.207031 C 6.839844 0.207031 8.441406 -0.75 8.875 -2.257812 L 7.707031 -2.53125 C 7.382812 -1.453125 6.253906 -0.769531 4.78125 -0.769531 C 2.835938 -0.769531 1.597656 -1.71875 1.597656 -3.199219 C 1.597656 -4.679688 2.730469 -5.628906 4.5 -5.628906 C 5.78125 -5.628906 6.785156 -5.023438 7.09375 -4.066406 L 8.230469 -4.402344 C 7.761719 -5.746094 6.296875 -6.605469 4.472656 -6.605469 C 1.941406 -6.605469 0.34375 -5.277344 0.34375 -3.199219 C 0.34375 -1.101562 2.058594 0.207031 4.761719 0.207031 Z M 4.761719 0.207031 "/></g></g></g><g fill="#f8f9fa" fill-opacity="1"><g transform="translate(326.510819, 105.747214)"><g><path d="M 0.453125 0 L 6.914062 0 L 6.914062 -0.914062 L 1.671875 -0.914062 L 1.671875 -2.875 L 6.460938 -2.875 L 6.460938 -3.714844 L 1.671875 -3.714844 L 1.671875 -5.484375 L 6.820312 -5.484375 L 6.820312 -6.40625 L 0.453125 -6.40625 Z M 0.453125 0 "/></g></g></g><g fill="#f8f9fa" fill-opacity="1"><g transform="translate(340.835822, 105.747214)"><g><path d="M 4.128906 0.21875 C 6.125 0.21875 7.464844 -0.613281 7.464844 -1.84375 C 7.464844 -2.875 6.640625 -3.425781 4.734375 -3.6875 L 3.234375 -3.894531 C 2.230469 -4.03125 1.808594 -4.28125 1.808594 -4.714844 C 1.808594 -5.304688 2.601562 -5.710938 3.714844 -5.710938 C 4.824219 -5.710938 5.847656 -5.257812 6.34375 -4.617188 L 6.929688 -5.347656 C 6.359375 -6.097656 5.125 -6.625 3.703125 -6.625 C 1.871094 -6.625 0.570312 -5.875 0.570312 -4.636719 C 0.570312 -3.640625 1.28125 -3.136719 2.953125 -2.917969 L 4.472656 -2.683594 C 5.703125 -2.511719 6.226562 -2.214844 6.226562 -1.734375 C 6.226562 -1.148438 5.414062 -0.714844 4.191406 -0.714844 C 2.703125 -0.714844 1.328125 -1.347656 0.859375 -2.257812 L 0.179688 -1.535156 C 0.785156 -0.507812 2.347656 0.21875 4.128906 0.21875 Z M 4.128906 0.21875 "/></g></g></g><g fill="#f8f9fa" fill-opacity="1"><g transform="translate(355.711935, 105.747214)"><g><path d="M 4.128906 0.21875 C 6.125 0.21875 7.464844 -0.613281 7.464844 -1.84375 C 7.464844 -2.875 6.640625 -3.425781 4.734375 -3.6875 L 3.234375 -3.894531 C 2.230469 -4.03125 1.808594 -4.28125 1.808594 -4.714844 C 1.808594 -5.304688 2.601562 -5.710938 3.714844 -5.710938 C 4.824219 -5.710938 5.847656 -5.257812 6.34375 -4.617188 L 6.929688 -5.347656 C 6.359375 -6.097656 5.125 -6.625 3.703125 -6.625 C 1.871094 -6.625 0.570312 -5.875 0.570312 -4.636719 C 0.570312 -3.640625 1.28125 -3.136719 2.953125 -2.917969 L 4.472656 -2.683594 C 5.703125 -2.511719 6.226562 -2.214844 6.226562 -1.734375 C 6.226562 -1.148438 5.414062 -0.714844 4.191406 -0.714844 C 2.703125 -0.714844 1.328125 -1.347656 0.859375 -2.257812 L 0.179688 -1.535156 C 0.785156 -0.507812 2.347656 0.21875 4.128906 0.21875 Z M 4.128906 0.21875 "/></g></g></g><g fill="#f8f9fa" fill-opacity="1"><g transform="translate(4.252253, 147.320742)"><g><path d="M 70.535156 -94.613281 L 78.40625 -103.253906 L 78.40625 -104.179688 L 32.410156 -104.179688 L 32.410156 -103.253906 L 40.285156 -94.613281 L 40.285156 -32.410156 C 40.285156 -8.644531 40.128906 -1.699219 35.191406 -1.699219 C 24.386719 -1.699219 24.539062 -39.972656 26.390625 -53.246094 L 25.464844 -53.710938 L 0.773438 -16.667969 C 8.335938 -2.777344 18.058594 2.160156 30.097656 2.160156 C 45.375 2.160156 70.535156 -23.613281 70.535156 -32.71875 Z M 70.535156 -94.613281 "/></g></g></g><g clip-path="url(#055b1c7e75)"><g clip-path="url(#a8d4fcf6a6)"><path fill="#f8f9fa" d="M 83.167969 74.710938 L 108.085938 74.710938 L 108.085938 124.019531 L 83.167969 124.019531 Z M 83.167969 74.710938 " fill-opacity="1" fill-rule="nonzero"/></g></g><g clip-path="url(#60f31da409)"><g clip-path="url(#aae3185bd0)"><g clip-path="url(#23678f87ff)"><path fill="#f8f9fa" d="M 107.902344 78.871094 C 108.125 79.675781 108.253906 80.378906 108.402344 81.089844 C 108.550781 81.800781 108.714844 82.496094 108.847656 83.171875 C 109.160156 84.523438 109.421875 85.800781 109.722656 87.03125 C 110.296875 89.488281 110.933594 91.769531 111.566406 93.914062 C 112.769531 97.949219 114.195312 101.902344 115.84375 105.777344 C 117.503906 109.644531 119.371094 113.414062 121.441406 117.078125 C 122.542969 119.011719 123.742188 121.042969 125.105469 123.175781 C 125.785156 124.246094 126.519531 125.332031 127.273438 126.496094 C 127.667969 127.058594 128.0625 127.648438 128.464844 128.257812 C 128.871094 128.871094 129.285156 129.449219 129.710938 130.171875 C 128.949219 130.339844 128.183594 130.464844 127.40625 130.539062 C 126.65625 130.578125 125.890625 130.613281 125.136719 130.601562 C 124.382812 130.589844 123.640625 130.472656 122.863281 130.378906 C 122.085938 130.285156 121.371094 130.113281 120.632812 129.96875 C 117.640625 129.246094 114.855469 128.046875 112.277344 126.367188 C 109.671875 124.648438 107.375 122.589844 105.382812 120.1875 C 103.390625 117.78125 101.792969 115.140625 100.585938 112.261719 C 99.355469 109.394531 98.570312 106.40625 98.222656 103.304688 C 97.878906 100.199219 97.992188 97.113281 98.5625 94.046875 C 99.136719 91.023438 100.203125 88.1875 101.761719 85.535156 C 102.164062 84.886719 102.582031 84.285156 103.003906 83.644531 C 103.425781 83.007812 103.925781 82.445312 104.433594 81.882812 C 104.945312 81.324219 105.5 80.785156 106.054688 80.292969 C 106.640625 79.78125 107.253906 79.304688 107.902344 78.871094 Z M 107.902344 78.871094 " fill-opacity="1" fill-rule="nonzero"/></g></g></g></svg>