<svg xmlns="http://www.w3.org/2000/svg" xmlns:xlink="http://www.w3.org/1999/xlink" width="100" zoomAndPan="magnify" viewBox="0 0 75 30.000001" height="40" preserveAspectRatio="xMidYMid meet" version="1.0"><defs><g/><clipPath id="674bfdf057"><path d="M 50.734375 1.015625 L 59.230469 1.015625 L 59.230469 9.511719 L 50.734375 9.511719 Z M 50.734375 1.015625 " clip-rule="nonzero"/></clipPath><clipPath id="04efd0179f"><path d="M 54.980469 1.015625 C 52.636719 1.015625 50.734375 2.917969 50.734375 5.265625 C 50.734375 7.609375 52.636719 9.511719 54.980469 9.511719 C 57.328125 9.511719 59.230469 7.609375 59.230469 5.265625 C 59.230469 2.917969 57.328125 1.015625 54.980469 1.015625 Z M 54.980469 1.015625 " clip-rule="nonzero"/></clipPath></defs><g fill="#000000" fill-opacity="1"><g transform="translate(63.014808, 21.005214)"><g><path d="M 0.59375 -10.328125 L 8.078125 -10.328125 L 8.078125 -7.765625 L 3.65625 -7.765625 L 3.65625 -6.34375 L 6.84375 -6.34375 L 6.84375 -3.984375 L 3.65625 -3.984375 L 3.65625 -2.578125 L 8.078125 -2.578125 L 8.078125 0 L 0.59375 0 Z M 0.59375 -10.328125 "/></g></g></g><g fill="#000000" fill-opacity="1"><g transform="translate(55.64149, 18.046574)"><g><path d="M 0.296875 -2.015625 L 4.609375 -7.765625 L 0.40625 -7.765625 L 0.40625 -10.328125 L 8.390625 -10.328125 L 8.390625 -8.3125 L 4.09375 -2.578125 L 8.734375 -2.578125 L 8.734375 0 L 0.296875 0 Z M 0.296875 -2.015625 "/></g></g></g><g fill="#000000" fill-opacity="1"><g transform="translate(52.157518, 20.093408)"><g><path d="M 0.59375 -10.328125 L 3.65625 -10.328125 L 3.65625 0 L 0.59375 0 Z M 0.59375 -10.328125 "/></g></g></g><g clip-path="url(#674bfdf057)"><g clip-path="url(#04efd0179f)"><path fill="#ffffff" d="M 50.734375 1.015625 L 59.230469 1.015625 L 59.230469 9.511719 L 50.734375 9.511719 Z M 50.734375 1.015625 " fill-opacity="1" fill-rule="nonzero"/></g></g><g fill="#000000" fill-opacity="1"><g transform="translate(42.512167, 19.936777)"><g><path d="M 5.96875 0.21875 C 4.820312 0.21875 3.820312 0.00390625 2.96875 -0.421875 C 2.113281 -0.859375 1.453125 -1.476562 0.984375 -2.28125 C 0.523438 -3.09375 0.296875 -4.050781 0.296875 -5.15625 C 0.296875 -6.257812 0.523438 -7.21875 0.984375 -8.03125 C 1.453125 -8.84375 2.113281 -9.460938 2.96875 -9.890625 C 3.820312 -10.328125 4.820312 -10.546875 5.96875 -10.546875 C 7.507812 -10.546875 8.710938 -10.265625 9.578125 -9.703125 L 9.578125 -6.875 C 9.140625 -7.195312 8.648438 -7.429688 8.109375 -7.578125 C 7.566406 -7.722656 6.941406 -7.796875 6.234375 -7.796875 C 5.304688 -7.796875 4.601562 -7.566406 4.125 -7.109375 C 3.65625 -6.648438 3.421875 -6 3.421875 -5.15625 C 3.421875 -4.28125 3.648438 -3.617188 4.109375 -3.171875 C 4.566406 -2.722656 5.226562 -2.5 6.09375 -2.5 C 6.507812 -2.5 6.851562 -2.554688 7.125 -2.671875 L 7.125 -3.984375 L 5.703125 -3.984375 L 5.703125 -5.921875 L 9.921875 -5.921875 L 9.921875 -0.75 C 8.867188 -0.101562 7.550781 0.21875 5.96875 0.21875 Z M 5.96875 0.21875 "/></g></g></g><g fill="#000000" fill-opacity="1"><g transform="translate(36.337625, 20.58461)"><g><path d="M 0.59375 -10.328125 L 5.390625 -10.328125 C 6.628906 -10.328125 7.609375 -10.015625 8.328125 -9.390625 C 9.054688 -8.765625 9.421875 -7.863281 9.421875 -6.6875 C 9.421875 -5.914062 9.257812 -5.257812 8.9375 -4.71875 C 8.613281 -4.175781 8.15625 -3.757812 7.5625 -3.46875 L 9.296875 0 L 6.15625 0 L 4.65625 -3.03125 L 3.65625 -3.03125 L 3.65625 0 L 0.59375 0 Z M 4.796875 -5.453125 C 5.265625 -5.453125 5.628906 -5.539062 5.890625 -5.71875 C 6.148438 -5.90625 6.28125 -6.226562 6.28125 -6.6875 C 6.28125 -7.132812 6.148438 -7.445312 5.890625 -7.625 C 5.628906 -7.8125 5.265625 -7.90625 4.796875 -7.90625 L 3.65625 -7.90625 L 3.65625 -5.453125 Z M 4.796875 -5.453125 "/></g></g></g><g fill="#dceb1d" fill-opacity="1"><g transform="translate(35.009371, 19.936777)"><g><path d="M 0.59375 -10.328125 L 5.390625 -10.328125 C 6.628906 -10.328125 7.609375 -10.015625 8.328125 -9.390625 C 9.054688 -8.765625 9.421875 -7.863281 9.421875 -6.6875 C 9.421875 -5.914062 9.257812 -5.257812 8.9375 -4.71875 C 8.613281 -4.175781 8.15625 -3.757812 7.5625 -3.46875 L 9.296875 0 L 6.15625 0 L 4.65625 -3.03125 L 3.65625 -3.03125 L 3.65625 0 L 0.59375 0 Z M 4.796875 -5.453125 C 5.265625 -5.453125 5.628906 -5.539062 5.890625 -5.71875 C 6.148438 -5.90625 6.28125 -6.226562 6.28125 -6.6875 C 6.28125 -7.132812 6.148438 -7.445312 5.890625 -7.625 C 5.628906 -7.8125 5.265625 -7.90625 4.796875 -7.90625 L 3.65625 -7.90625 L 3.65625 -5.453125 Z M 4.796875 -5.453125 "/></g></g></g><g fill="#000000" fill-opacity="1"><g transform="translate(29.474951, 20.58461)"><g><path d="M 0.59375 -10.328125 L 8.078125 -10.328125 L 8.078125 -7.765625 L 3.65625 -7.765625 L 3.65625 -6.34375 L 6.84375 -6.34375 L 6.84375 -3.984375 L 3.65625 -3.984375 L 3.65625 -2.578125 L 8.078125 -2.578125 L 8.078125 0 L 0.59375 0 Z M 0.59375 -10.328125 "/></g></g></g><g fill="#dceb1d" fill-opacity="1"><g transform="translate(28.146697, 19.936777)"><g><path d="M 0.59375 -10.328125 L 8.078125 -10.328125 L 8.078125 -7.765625 L 3.65625 -7.765625 L 3.65625 -6.34375 L 6.84375 -6.34375 L 6.84375 -3.984375 L 3.65625 -3.984375 L 3.65625 -2.578125 L 8.078125 -2.578125 L 8.078125 0 L 0.59375 0 Z M 0.59375 -10.328125 "/></g></g></g><g fill="#000000" fill-opacity="1"><g transform="translate(21.146342, 20.58461)"><g><path d="M 0.59375 -10.328125 L 4.421875 -10.328125 C 5.566406 -10.328125 6.5625 -10.117188 7.40625 -9.703125 C 8.257812 -9.296875 8.921875 -8.703125 9.390625 -7.921875 C 9.859375 -7.148438 10.09375 -6.25 10.09375 -5.21875 C 10.09375 -3.5 9.582031 -2.195312 8.5625 -1.3125 C 7.550781 -0.4375 6.160156 0 4.390625 0 L 0.59375 0 Z M 4.609375 -2.578125 C 5.367188 -2.578125 5.953125 -2.8125 6.359375 -3.28125 C 6.773438 -3.75 6.984375 -4.394531 6.984375 -5.21875 C 6.984375 -5.945312 6.773438 -6.550781 6.359375 -7.03125 C 5.941406 -7.519531 5.375 -7.765625 4.65625 -7.765625 L 3.65625 -7.765625 L 3.65625 -2.578125 Z M 4.609375 -2.578125 "/></g></g></g><g fill="#dceb1d" fill-opacity="1"><g transform="translate(19.818088, 19.936777)"><g><path d="M 0.59375 -10.328125 L 4.421875 -10.328125 C 5.566406 -10.328125 6.5625 -10.117188 7.40625 -9.703125 C 8.257812 -9.296875 8.921875 -8.703125 9.390625 -7.921875 C 9.859375 -7.148438 10.09375 -6.25 10.09375 -5.21875 C 10.09375 -3.5 9.582031 -2.195312 8.5625 -1.3125 C 7.550781 -0.4375 6.160156 0 4.390625 0 L 0.59375 0 Z M 4.609375 -2.578125 C 5.367188 -2.578125 5.953125 -2.8125 6.359375 -3.28125 C 6.773438 -3.75 6.984375 -4.394531 6.984375 -5.21875 C 6.984375 -5.945312 6.773438 -6.550781 6.359375 -7.03125 C 5.941406 -7.519531 5.375 -7.765625 4.65625 -7.765625 L 3.65625 -7.765625 L 3.65625 -2.578125 Z M 4.609375 -2.578125 "/></g></g></g><g fill="#000000" fill-opacity="1"><g transform="translate(11.78192, 20.58461)"><g><path d="M 5.890625 0.21875 C 4.835938 0.21875 3.882812 -0.00390625 3.03125 -0.453125 C 2.1875 -0.910156 1.519531 -1.546875 1.03125 -2.359375 C 0.539062 -3.171875 0.296875 -4.101562 0.296875 -5.15625 C 0.296875 -6.207031 0.539062 -7.140625 1.03125 -7.953125 C 1.519531 -8.773438 2.1875 -9.410156 3.03125 -9.859375 C 3.882812 -10.316406 4.835938 -10.546875 5.890625 -10.546875 C 6.929688 -10.546875 7.875 -10.316406 8.71875 -9.859375 C 9.5625 -9.410156 10.222656 -8.773438 10.703125 -7.953125 C 11.191406 -7.140625 11.4375 -6.207031 11.4375 -5.15625 C 11.4375 -4.101562 11.191406 -3.171875 10.703125 -2.359375 C 10.222656 -1.546875 9.5625 -0.910156 8.71875 -0.453125 C 7.875 -0.00390625 6.929688 0.21875 5.890625 0.21875 Z M 5.890625 -2.640625 C 6.335938 -2.640625 6.742188 -2.738281 7.109375 -2.9375 C 7.484375 -3.144531 7.78125 -3.4375 8 -3.8125 C 8.21875 -4.195312 8.328125 -4.644531 8.328125 -5.15625 C 8.328125 -5.914062 8.09375 -6.519531 7.625 -6.96875 C 7.164062 -7.425781 6.585938 -7.65625 5.890625 -7.65625 C 5.171875 -7.65625 4.578125 -7.425781 4.109375 -6.96875 C 3.648438 -6.519531 3.421875 -5.914062 3.421875 -5.15625 C 3.421875 -4.644531 3.523438 -4.195312 3.734375 -3.8125 C 3.953125 -3.4375 4.25 -3.144531 4.625 -2.9375 C 5 -2.738281 5.421875 -2.640625 5.890625 -2.640625 Z M 5.890625 -2.640625 "/></g></g></g><g fill="#dceb1d" fill-opacity="1"><g transform="translate(10.453666, 19.936777)"><g><path d="M 5.890625 0.21875 C 4.835938 0.21875 3.882812 -0.00390625 3.03125 -0.453125 C 2.1875 -0.910156 1.519531 -1.546875 1.03125 -2.359375 C 0.539062 -3.171875 0.296875 -4.101562 0.296875 -5.15625 C 0.296875 -6.207031 0.539062 -7.140625 1.03125 -7.953125 C 1.519531 -8.773438 2.1875 -9.410156 3.03125 -9.859375 C 3.882812 -10.316406 4.835938 -10.546875 5.890625 -10.546875 C 6.929688 -10.546875 7.875 -10.316406 8.71875 -9.859375 C 9.5625 -9.410156 10.222656 -8.773438 10.703125 -7.953125 C 11.191406 -7.140625 11.4375 -6.207031 11.4375 -5.15625 C 11.4375 -4.101562 11.191406 -3.171875 10.703125 -2.359375 C 10.222656 -1.546875 9.5625 -0.910156 8.71875 -0.453125 C 7.875 -0.00390625 6.929688 0.21875 5.890625 0.21875 Z M 5.890625 -2.640625 C 6.335938 -2.640625 6.742188 -2.738281 7.109375 -2.9375 C 7.484375 -3.144531 7.78125 -3.4375 8 -3.8125 C 8.21875 -4.195312 8.328125 -4.644531 8.328125 -5.15625 C 8.328125 -5.914062 8.09375 -6.519531 7.625 -6.96875 C 7.164062 -7.425781 6.585938 -7.65625 5.890625 -7.65625 C 5.171875 -7.65625 4.578125 -7.425781 4.109375 -6.96875 C 3.648438 -6.519531 3.421875 -5.914062 3.421875 -5.15625 C 3.421875 -4.644531 3.523438 -4.195312 3.734375 -3.8125 C 3.953125 -3.4375 4.25 -3.144531 4.625 -2.9375 C 5 -2.738281 5.421875 -2.640625 5.890625 -2.640625 Z M 5.890625 -2.640625 "/></g></g></g><g fill="#000000" fill-opacity="1"><g transform="translate(4.20279, 20.58461)"><g><path d="M 5.96875 0.21875 C 4.820312 0.21875 3.820312 0.00390625 2.96875 -0.421875 C 2.113281 -0.859375 1.453125 -1.476562 0.984375 -2.28125 C 0.523438 -3.09375 0.296875 -4.050781 0.296875 -5.15625 C 0.296875 -6.257812 0.523438 -7.21875 0.984375 -8.03125 C 1.453125 -8.84375 2.113281 -9.460938 2.96875 -9.890625 C 3.820312 -10.328125 4.820312 -10.546875 5.96875 -10.546875 C 6.707031 -10.546875 7.367188 -10.476562 7.953125 -10.34375 C 8.535156 -10.207031 9.078125 -9.988281 9.578125 -9.6875 L 9.578125 -6.859375 C 9.140625 -7.191406 8.648438 -7.429688 8.109375 -7.578125 C 7.566406 -7.722656 6.941406 -7.796875 6.234375 -7.796875 C 5.304688 -7.796875 4.601562 -7.570312 4.125 -7.125 C 3.65625 -6.6875 3.421875 -6.03125 3.421875 -5.15625 C 3.421875 -4.28125 3.664062 -3.617188 4.15625 -3.171875 C 4.644531 -2.722656 5.335938 -2.5 6.234375 -2.5 C 6.929688 -2.5 7.554688 -2.578125 8.109375 -2.734375 C 8.671875 -2.890625 9.203125 -3.140625 9.703125 -3.484375 L 9.703125 -0.6875 C 8.742188 -0.0820312 7.5 0.21875 5.96875 0.21875 Z M 5.96875 0.21875 "/></g></g></g><g fill="#dceb1d" fill-opacity="1"><g transform="translate(2.874536, 19.936777)"><g><path d="M 5.96875 0.21875 C 4.820312 0.21875 3.820312 0.00390625 2.96875 -0.421875 C 2.113281 -0.859375 1.453125 -1.476562 0.984375 -2.28125 C 0.523438 -3.09375 0.296875 -4.050781 0.296875 -5.15625 C 0.296875 -6.257812 0.523438 -7.21875 0.984375 -8.03125 C 1.453125 -8.84375 2.113281 -9.460938 2.96875 -9.890625 C 3.820312 -10.328125 4.820312 -10.546875 5.96875 -10.546875 C 6.707031 -10.546875 7.367188 -10.476562 7.953125 -10.34375 C 8.535156 -10.207031 9.078125 -9.988281 9.578125 -9.6875 L 9.578125 -6.859375 C 9.140625 -7.191406 8.648438 -7.429688 8.109375 -7.578125 C 7.566406 -7.722656 6.941406 -7.796875 6.234375 -7.796875 C 5.304688 -7.796875 4.601562 -7.570312 4.125 -7.125 C 3.65625 -6.6875 3.421875 -6.03125 3.421875 -5.15625 C 3.421875 -4.28125 3.664062 -3.617188 4.15625 -3.171875 C 4.644531 -2.722656 5.335938 -2.5 6.234375 -2.5 C 6.929688 -2.5 7.554688 -2.578125 8.109375 -2.734375 C 8.671875 -2.890625 9.203125 -3.140625 9.703125 -3.484375 L 9.703125 -0.6875 C 8.742188 -0.0820312 7.5 0.21875 5.96875 0.21875 Z M 5.96875 0.21875 "/></g></g></g><g fill="#000000" fill-opacity="1"><g transform="translate(54.187167, 8.489104)"><g><path d="M 1.65625 0.0625 C 1.363281 0.0625 1.097656 0 0.859375 -0.125 C 0.617188 -0.257812 0.425781 -0.441406 0.28125 -0.671875 C 0.144531 -0.898438 0.078125 -1.160156 0.078125 -1.453125 C 0.078125 -1.753906 0.144531 -2.019531 0.28125 -2.25 C 0.425781 -2.476562 0.617188 -2.65625 0.859375 -2.78125 C 1.097656 -2.914062 1.363281 -2.984375 1.65625 -2.984375 C 1.957031 -2.984375 2.222656 -2.914062 2.453125 -2.78125 C 2.691406 -2.65625 2.878906 -2.476562 3.015625 -2.25 C 3.160156 -2.019531 3.234375 -1.753906 3.234375 -1.453125 C 3.234375 -1.160156 3.160156 -0.898438 3.015625 -0.671875 C 2.878906 -0.441406 2.691406 -0.257812 2.453125 -0.125 C 2.222656 0 1.957031 0.0625 1.65625 0.0625 Z M 1.65625 -0.75 C 1.789062 -0.75 1.910156 -0.773438 2.015625 -0.828125 C 2.117188 -0.890625 2.195312 -0.972656 2.25 -1.078125 C 2.3125 -1.179688 2.34375 -1.304688 2.34375 -1.453125 C 2.34375 -1.671875 2.273438 -1.84375 2.140625 -1.96875 C 2.015625 -2.09375 1.851562 -2.15625 1.65625 -2.15625 C 1.457031 -2.15625 1.289062 -2.09375 1.15625 -1.96875 C 1.03125 -1.84375 0.96875 -1.671875 0.96875 -1.453125 C 0.96875 -1.304688 0.992188 -1.179688 1.046875 -1.078125 C 1.109375 -0.972656 1.191406 -0.890625 1.296875 -0.828125 C 1.410156 -0.773438 1.53125 -0.75 1.65625 -0.75 Z M 1.65625 -0.75 "/></g></g></g></svg>